<svg xmlns="http://www.w3.org/2000/svg" viewBox="0 0 36.46 41.95"><path d="M18.01 35.63 5.65 28.5a.504.504 0 0 1-.25-.43V17.05c0-.19.21-.31.37-.22l14.35 8.28c.2.12.45-.03.45-.26v-5.37a.6.6 0 0 0-.3-.52L3.01 9a.497.497 0 0 0-.5 0L.25 10.31c-.15.09-.25.25-.25.43v20.47c0 .18.1.34.25.43l17.73 10.24c.15.09.35.09.5 0l14.89-8.6a.3.3 0 0 0 0-.52l-4.64-2.68a.587.587 0 0 0-.6 0l-9.61 5.55c-.15.09-.35.09-.5 0ZM36.21 10.3 18.48.07a.497.497 0 0 0-.5 0L8.61 5.48a.3.3 0 0 0 0 .52l4.6 2.66c.19.11.41.11.6 0l4.2-2.42c.15-.09.35-.09.5 0l12.36 7.13c.15.09.25.25.25.43v11.07c0 .21.11.41.3.52l4.6 2.65c.2.12.45-.03.45-.26V10.74c0-.18-.1-.34-.25-.43Z"/></svg>